<svg xmlns="http://www.w3.org/2000/svg" width="512" height="512" id="saturn"><circle cx="256.68" cy="237.009" r="142.064" fill="#E0BEA8"></circle><path fill="#FFE3D1" d="M132.783 306.501c33.939-17.412 148.898-85.837 183.807-198.307-18.208-8.483-38.498-13.249-59.91-13.249-2.063 0-4.113.068-6.157.155-10.39 23.527-50.635 102.872-135.864 143.582.285 24.623 6.831 47.727 18.124 67.819z"></path><path fill="#FFE3D1" d="M332.219 116.713c-40.596 122.647-167.261 187.857-193.1 200.063 10.71 15.754 24.519 29.216 40.528 39.57 90.361-60.933 180.926-172.953 197.74-194.236a142.756 142.756 0 0 0-45.168-45.397zm66.525 120.297c0-8.139-.722-16.105-2.035-23.87-32.795 89.456-126.508 147.28-157.811 164.786 5.83.729 11.755 1.147 17.782 1.147 78.461 0 142.064-63.604 142.064-142.063z"></path><path fill="#B7846A" d="M450.269 61.731c-10.58-10.58-49.154 9.155-100.581 48.466-1.725 1.317-1.735 3.924-.024 5.258l.504.395a3.318 3.318 0 0 0 4.004.052c26.127-19.05 44.304-28.122 49.275-23.15 11.266 11.267-49.405 90.202-135.513 176.311-86.109 86.107-165.045 146.776-176.311 135.51-6.333-6.333 10.092-34.069 40.964-72.423.921-1.146 1.004-2.773.158-3.975l-.041-.058c-1.272-1.81-3.916-1.925-5.312-.209-50.544 62.133-77.688 110.332-65.661 122.359 18.275 18.275 120.068-53.886 227.36-161.178C396.383 181.8 468.544 80.007 450.269 61.731z"></path><path fill="#FFE3D1" d="M210.607 371.391c3.457 1.187 6.957 2.278 10.529 3.199 51.322-31.921 123.751-84.701 172.099-176.735a140.944 140.944 0 0 0-3.596-10.918c-13.544 24.357-64.399 114.124-179.032 184.454zm-4.569-267.118a141.47 141.47 0 0 0-11.34 4.881c-20.854 29.215-49.31 52.966-65.576 65.295a140.5 140.5 0 0 0-4.149 9.312c39.498-24.379 71.512-66.235 81.065-79.488z"></path></svg>